<svg width="45" height="45" viewBox="0 0 45 45" fill="none" xmlns="http://www.w3.org/2000/svg">
<path d="M22.5 44C34.3741 44 44 34.3741 44 22.5C44 10.6259 34.3741 1 22.5 1C10.6259 1 1 10.6259 1 22.5C1 34.3741 10.6259 44 22.5 44Z" stroke="#A4A4A4" stroke-width="2"/>
<path d="M20.1406 28.25V28.1094C20.1563 26.6172 20.3125 25.4297 20.6094 24.5469C20.9063 23.6641 21.3281 22.9492 21.875 22.4023C22.4219 21.8555 23.0781 21.3516 23.8438 20.8906C24.3047 20.6094 24.7187 20.2773 25.0859 19.8945C25.4531 19.5039 25.7422 19.0547 25.9531 18.5469C26.1719 18.0391 26.2813 17.4766 26.2813 16.8594C26.2813 16.0937 26.1016 15.4297 25.7422 14.8672C25.3828 14.3047 24.9023 13.8711 24.3008 13.5664C23.6992 13.2617 23.0313 13.1094 22.2969 13.1094C21.6563 13.1094 21.0391 13.2422 20.4453 13.5078C19.8516 13.7734 19.3555 14.1914 18.957 14.7617C18.5586 15.332 18.3281 16.0781 18.2656 17H15.3125C15.375 15.6719 15.7188 14.5352 16.3437 13.5898C16.9766 12.6445 17.8086 11.9219 18.8398 11.4219C19.8789 10.9219 21.0313 10.6719 22.2969 10.6719C23.6719 10.6719 24.8672 10.9453 25.8828 11.4922C26.9063 12.0391 27.6953 12.7891 28.25 13.7422C28.8125 14.6953 29.0938 15.7812 29.0938 17C29.0938 17.8594 28.9609 18.6367 28.6953 19.332C28.4375 20.0273 28.0625 20.6484 27.5703 21.1953C27.0859 21.7422 26.5 22.2266 25.8125 22.6484C25.125 23.0781 24.5742 23.5312 24.1602 24.0078C23.7461 24.4766 23.4453 25.0352 23.2578 25.6836C23.0703 26.332 22.9688 27.1406 22.9531 28.1094V28.25H20.1406ZM21.6406 35.1875C21.0625 35.1875 20.5664 34.9805 20.1523 34.5664C19.7383 34.1523 19.5313 33.6563 19.5313 33.0781C19.5313 32.5 19.7383 32.0039 20.1523 31.5898C20.5664 31.1758 21.0625 30.9687 21.6406 30.9687C22.2188 30.9687 22.7148 31.1758 23.1289 31.5898C23.543 32.0039 23.75 32.5 23.75 33.0781C23.75 33.4609 23.6523 33.8125 23.457 34.1328C23.2695 34.4531 23.0156 34.7109 22.6953 34.9062C22.3828 35.0938 22.0313 35.1875 21.6406 35.1875Z" fill="#A4A4A4"/>
</svg>
